<svg width="1142" height="126" viewBox="0 0 1142 126" fill="none" xmlns="http://www.w3.org/2000/svg">
<path d="M0.572744 12.5976C0.182638 8.33379 0.377691 3.68237 0.962851 2.51952C1.74306 0.581427 13.4463 0 49.9212 0C90.6874 0 97.9044 0.387618 98.6846 2.90714C99.2698 4.45761 99.6599 8.13998 99.6599 11.2409C99.6599 14.1481 98.8796 17.6366 98.0994 18.7995C97.1242 20.7376 85.421 21.1252 1.1579 20.3499L0.572744 12.5976Z" fill="white"/>
<path d="M156.81 11.4347C159.346 7.94617 164.418 4.06999 168.124 2.71333C172.805 0.969045 185.678 0.193809 247.9 0V21.319L213.766 21.9004C184.118 22.288 179.242 22.6757 176.316 25.7766C173.195 28.8776 172.805 33.1413 172.805 61.8251C172.805 91.8655 173.195 94.9664 176.706 98.6488C180.412 102.525 182.753 102.719 246.925 103.688V125.007H209.865C176.316 125.007 172.22 124.619 165.978 121.131C161.687 118.611 157.396 113.572 154.275 107.564C149.594 98.455 149.398 96.1293 149.398 64.926C149.398 46.9018 149.984 28.6837 150.764 24.8076C151.739 20.7376 154.47 14.7295 156.81 11.4347Z" fill="white"/>
<path fill-rule="evenodd" clip-rule="evenodd" d="M314.609 4.45761C308.367 7.55855 304.856 11.0471 301.93 17.4428C298.029 25.389 297.639 29.2652 297.639 62.0189C297.639 96.3231 297.834 98.2612 302.515 107.564C305.636 113.572 309.927 118.611 314.219 121.131C320.07 124.425 325.337 125.201 349.328 125.588C365.908 125.976 381.122 125.394 385.998 124.232C390.484 123.069 396.726 119.968 400.042 117.254C404.138 113.96 406.869 108.921 409.015 101.362C411.55 92.4469 412.135 83.3379 411.355 57.1737C410.77 27.7147 410.185 23.2571 406.284 16.0862C403.163 10.0781 399.652 6.58951 393.8 3.87618C386.583 0.581427 381.122 0 354.205 0C325.532 0 322.216 0.387618 314.609 4.45761ZM322.996 29.0714C324.556 26.5519 327.677 23.8386 330.213 22.8695C332.749 22.0943 345.037 21.7067 357.715 21.9005C379.951 22.2881 381.122 22.4819 384.828 27.1333C388.339 31.591 388.534 34.3043 387.949 64.5385C387.363 94.5789 386.973 97.486 383.462 100.006C380.537 102.137 373.125 102.719 354.204 102.719C340.356 102.719 327.872 101.944 326.507 101.168C325.336 100.393 323.386 97.486 322.216 94.5789C321.045 91.4779 320.07 76.7485 320.07 61.6314C320.07 41.0876 320.85 32.7538 322.996 29.0714Z" fill="white"/>
<path d="M460.899 61.8251C461.289 18.6057 462.069 5.62046 464.215 3.29475C466.165 0.775236 470.066 0 480.794 0C488.401 0 495.813 0.775236 496.984 1.55047C498.349 2.32571 506.541 19.9623 514.928 40.6999C523.511 61.4375 531.508 78.4927 532.873 78.4927C534.239 78.4927 541.651 62.7941 549.258 43.607C557.06 24.4199 564.862 6.78332 566.618 4.45761C569.348 0.581427 571.494 0 583.002 0C590.219 0 597.046 0.775236 598.411 1.55047C599.582 2.32571 601.532 5.23284 602.703 8.33379C604.068 11.6285 604.848 33.529 604.848 67.4455C604.848 106.983 604.263 121.712 602.508 123.65C601.142 124.813 596.461 125.976 591.78 125.976C586.123 125.976 583.002 125.007 582.417 123.069C581.832 121.518 581.442 101.362 581.442 78.4927C581.442 46.1266 580.857 37.0175 579.101 37.4051C577.736 37.7928 570.909 52.1346 563.887 68.996C556.865 86.0512 549.648 102.331 547.893 105.238C544.772 109.89 543.211 110.471 533.264 110.471C525.266 110.471 520.975 109.308 518.439 106.983C516.684 105.238 508.687 88.1831 500.885 69.1898C493.278 50.1965 486.256 34.8856 485.475 34.8856C484.5 34.8856 483.915 54.2665 483.915 78.105C483.915 109.308 483.33 121.712 481.574 123.65C480.209 124.813 475.528 125.976 470.846 125.976C463.824 125.976 462.264 125.201 461.484 121.712C460.899 119.193 460.509 92.2531 460.899 61.8251Z" fill="white"/>
<path fill-rule="evenodd" clip-rule="evenodd" d="M669.606 4.45761C663.364 7.55855 659.853 11.0471 656.927 17.4428C653.026 25.389 652.636 29.2652 652.636 62.0189C652.636 96.3231 652.831 98.2612 657.513 107.564C660.633 113.572 664.925 118.611 669.216 121.131C675.067 124.425 680.334 125.201 704.325 125.588C720.905 125.976 736.119 125.394 740.995 124.232C745.482 123.069 751.918 119.968 755.039 117.254C759.135 113.96 761.866 108.921 764.012 101.362C766.547 92.4469 767.133 83.3379 766.352 57.1737C765.767 27.7147 765.182 23.2571 761.281 16.0862C758.16 10.0781 754.649 6.58951 748.798 3.87618C741.581 0.581427 736.119 0 709.202 0C680.529 0 677.213 0.387618 669.606 4.45761ZM677.993 29.0714C679.553 26.5519 682.674 23.8386 685.21 22.8695C687.746 22.0943 700.034 21.7067 712.712 21.9005C734.948 22.2881 736.119 22.4819 739.825 27.1333C743.336 31.591 743.531 34.3043 742.946 64.5385C742.361 94.5789 741.97 97.486 738.459 100.006C735.534 102.137 728.122 102.719 709.201 102.719C695.353 102.719 682.869 101.944 681.504 101.168C680.334 100.393 678.383 97.486 677.213 94.5789C676.042 91.4779 675.067 76.7485 675.067 61.6314C675.067 41.0876 675.847 32.7538 677.993 29.0714Z" fill="white"/>
<path fill-rule="evenodd" clip-rule="evenodd" d="M815.506 62.0189C815.506 10.2719 815.701 7.55855 819.407 3.87618C823.113 0.193809 825.844 0 864.854 0C893.722 0 907.571 0.775236 910.887 2.51952C913.618 3.68237 917.519 7.94617 919.664 11.6285C922.59 16.6676 923.565 22.0942 923.37 32.9475C923.37 42.638 922.395 49.6151 920.249 53.8789C917.129 59.6932 917.129 60.4684 920.249 65.5075C922.395 68.8022 923.76 76.3608 924.346 86.245C925.126 99.0364 924.541 103.3 921.03 111.053C917.909 117.836 915.178 120.937 910.107 123.069C904.84 125.394 894.697 125.976 825.258 125.976L815.506 116.285V62.0189ZM839.887 22.6757C838.912 23.2572 838.327 41.669 838.522 63.3756L838.912 102.719C888.26 102.719 897.428 101.944 898.988 100.393C900.354 99.0365 901.329 93.6098 901.524 88.1832C901.524 82.7565 900.354 77.5237 898.988 76.167C897.428 74.8104 888.456 73.6475 876.947 73.2599L857.442 72.6785V51.3595C888.456 50.3904 897.428 49.2276 898.988 47.8709C900.549 46.5142 901.524 41.2814 901.329 35.4671C901.329 27.1333 900.549 24.8076 897.428 23.2572C895.282 22.2881 881.824 21.3191 867.585 21.3191C853.151 21.3191 840.863 21.9005 839.887 22.6757Z" fill="white"/>
<path d="M974.474 1.16285C973.694 1.93809 972.914 29.2652 973.109 61.8251C973.304 94.385 974.279 122.294 975.059 123.65C975.84 125.201 979.741 125.976 986.177 125.588L995.93 125.007V0.969045C980.716 0 975.45 0.387618 974.474 1.16285Z" fill="white"/>
<path d="M1046.06 51.747C1045.67 26.358 1045.86 4.2638 1046.64 2.71333C1047.42 0.581427 1050.15 0 1068.1 0.969045L1069.08 47.677C1070.05 91.0903 1070.25 94.9664 1073.95 98.6488C1077.66 102.525 1079.61 102.913 1107.11 102.719C1128.18 102.719 1137.15 103.3 1138.9 105.045C1140.27 106.401 1141.24 110.665 1141.44 114.347C1141.44 118.03 1140.27 122.294 1138.9 123.65C1136.95 125.394 1127.98 125.976 1103.21 125.588C1074.15 125.007 1069.27 124.619 1063.22 121.131C1058.93 118.611 1054.64 113.572 1051.52 107.564C1046.84 98.2612 1046.64 96.5169 1046.06 51.747Z" fill="white"/>
<path d="M4.66887 55.6232C-0.402522 60.856 -0.402522 61.6313 0.377691 79.4617C1.1579 93.8036 2.52328 100.005 6.22929 107.564C9.15509 113.766 13.2512 118.611 17.7374 121.131C23.7841 124.619 28.6604 125.007 59.6739 125.588C91.8577 126.17 94.9786 125.976 97.3192 122.681C98.6846 120.743 99.6599 115.704 99.6599 111.44C99.6599 107.176 98.8796 102.719 98.0994 101.362C97.1242 99.8117 86.2012 98.8426 63.9651 98.455L63.7524 98.4512C31.5837 97.8736 30.9929 97.8629 27.2951 93.0283C24.9544 90.1212 23.394 85.276 23.589 81.0122V73.6474L96.7341 72.6784V51.3594L9.74025 50.3904L4.66887 55.6232Z" fill="white"/>
</svg>
