<svg xmlns="http://www.w3.org/2000/svg" >
    <symbol id="arrow_back" viewBox="0 0 12 18" fill="none">
        
            <path d="M10.5 1L1.5 9L10.5 17" stroke-width="1.5" stroke-linecap="round"/>
        
    </symbol>
    <symbol id="arrow_forward" viewBox="0 0 11 19" fill="none">
        
            <path d="M1.54688 1.479L9.45313 9.38525L1.54688 17.2915" stroke-width="1.5" stroke-linecap="round"/>
        
    </symbol>
    <symbol id="arrow_breadcrumbs" viewBox="0 0 7 13" fill="none">
        
          <path d="M0.628906 0.870544L6.2583 6.50005L0.628906 12.1294" stroke-linecap="round" stroke-linejoin="round"/>
        
    </symbol>
    <symbol id="arrow_down" viewBox="0 0 19 11" fill="none">
        
            <g transform="matrix(0 1 -1 0 19 -0)">
                <path d="M1.54688 1.479L9.45313 9.38525L1.54688 17.2915" stroke-width="1.5" stroke-linecap="round" />
                </g>
        
    </symbol>
    <symbol id="burger" viewBox="0 0 35 36" fill="none">
        <path d="M7.5249 10.8154H27.6431" stroke-width="1.5" stroke-linecap="round"/>
        <path d="M7.5249 18H27.6431" stroke-width="1.5" stroke-linecap="round"/>
        <path d="M7.5249 25.1855H27.6431" stroke-width="1.5" stroke-linecap="round"/>   
    </symbol>
    <symbol id="check" viewBox="0 0 100 100" fill="none">
        <path d="M50 0C22.3857 0 0 22.3857 0 50C0 77.6143 22.3857 100 50 100C77.6143 100 100 77.6143 100 50C100 22.3857 77.6143 0 50 0ZM71.4538 23.4192L81.8419 33.8073L49.3958 66.2598L39.0686 76.5808L28.6804 66.1927L18.1579 55.664L28.479 45.3429L39.0015 55.8715L71.4538 23.4192Z" fill="white"/>   
    </symbol>
    <symbol id="close" viewBox="0 0 17 16" fill="none">
        <path d="M1.30322 0.886719L15.5289 15.1124" stroke-width="1.5" stroke-linecap="round"/>
        <path d="M1.30322 15.1123L15.5289 0.886615" stroke-width="1.5" stroke-linecap="round"/>
    </symbol>
    <symbol id="settings" viewBox="0 0 89 88" fill="none">
        <g opacity="0.8">
        <path d="M44.2196 67.9399C39.5241 67.8792 34.9516 66.4304 31.0779 63.7761C27.2041 61.1217 24.2024 57.3805 22.4508 53.0235C20.6992 48.6666 20.276 43.8887 21.2344 39.2917C22.1929 34.6947 24.4902 30.4841 27.837 27.1901C31.1838 23.8962 35.4305 21.6662 40.0422 20.781C44.6539 19.8959 49.4244 20.3951 53.7529 22.2159C58.0814 24.0367 61.7744 27.0975 64.3667 31.013C66.9591 34.9285 68.3348 39.5235 68.3208 44.2194C68.2589 50.5574 65.6877 56.6124 61.1704 61.0584C56.653 65.5044 50.5577 67.9789 44.2196 67.9399ZM44.2196 24.0131C40.2531 24.0679 36.3912 25.2933 33.1187 27.5354C29.8462 29.7775 27.3089 32.9364 25.8255 36.6155C24.3421 40.2946 23.9786 44.33 24.7807 48.2149C25.5827 52.0999 27.5146 55.6614 30.3337 58.4522C33.1529 61.243 36.7336 63.1388 40.6265 63.9016C44.5194 64.6645 48.5509 64.2602 52.2148 62.7398C55.8787 61.2193 59.0119 58.6503 61.2208 55.3553C63.4298 52.0604 64.6161 48.1863 64.6309 44.2194C64.5922 38.8368 62.4228 33.6887 58.5975 29.9017C54.7721 26.1148 49.6024 23.9975 44.2196 24.0131Z" fill="url(#paint0_linear_2565_714)"/>
        <path d="M53.5321 88H35.0536C34.5497 87.9925 34.0683 87.7901 33.7106 87.4351C33.3529 87.0801 33.1468 86.6003 33.1354 86.0965V77.0183C32.989 77.0183 32.8426 76.8719 32.6815 76.8719H32.5058C32.3594 76.8719 32.0666 76.7255 31.9201 76.7255C31.7737 76.7255 31.7737 76.7255 31.6273 76.579C31.4809 76.4326 31.3344 76.4326 31.1734 76.4326C31.0123 76.4326 30.8805 76.2862 30.7341 76.2862C30.6231 76.2707 30.5203 76.2193 30.4413 76.1398C30.2948 76.1398 30.1484 75.9933 30.002 75.9933L29.6945 75.8469C29.5481 75.7005 29.2552 75.7005 29.1088 75.5541L28.9624 75.4077C28.816 75.4077 28.6696 75.2612 28.5231 75.2612L22.0073 81.7038C21.6559 82.0552 21.1792 82.2526 20.6822 82.2526C20.1852 82.2526 19.7085 82.0552 19.3571 81.7038L6.3401 68.8186C5.99677 68.4599 5.78515 67.9953 5.73977 67.5008C5.74045 67.2511 5.79435 67.0044 5.89786 66.7772C6.00138 66.55 6.15214 66.3474 6.3401 66.183L12.8413 59.7404C12.8413 59.594 12.6948 59.4476 12.6948 59.3012L12.5484 59.1547C12.402 59.0083 12.402 58.7155 12.2556 58.5691L12.1092 58.2762C12.1092 58.1298 11.9627 57.9834 11.9627 57.8369C11.9627 57.6905 11.8017 57.5441 11.8017 57.3977C11.8017 57.2512 11.6552 57.1048 11.6552 56.9584C11.6552 56.812 11.5088 56.6656 11.5088 56.5191C11.5088 56.3727 11.5088 56.3727 11.3624 56.2263C11.216 56.0799 11.216 55.787 11.216 55.6406V55.4942C11.216 55.3478 11.0696 55.2013 11.0696 55.0549H1.93278C1.42635 55.0512 0.941277 54.8504 0.580445 54.495C0.219614 54.1397 0.0114101 53.6577 0 53.1514V34.8486C0.0114101 34.3423 0.219614 33.8603 0.580445 33.505C0.941277 33.1496 1.42635 32.9488 1.93278 32.9451H10.9524C10.9524 32.7987 11.0988 32.6522 11.0988 32.5058V32.3594C11.0988 32.213 11.2453 31.9201 11.2453 31.7737C11.2453 31.6273 11.2453 31.6273 11.3917 31.4809C11.5381 31.3344 11.5381 31.188 11.5381 31.0416C11.5381 30.8952 11.6845 30.7488 11.6845 30.6023C11.6845 30.4559 11.8309 30.3095 11.8309 30.1631C11.8309 30.0166 11.992 29.8702 11.992 29.7238L12.1384 29.431C12.2849 29.2845 12.2849 28.9917 12.4313 28.8453L12.5777 28.6988C12.5777 28.5524 12.7241 28.406 12.7241 28.2596L6.22296 21.817C5.8746 21.4616 5.66212 20.9952 5.62263 20.4992C5.62331 20.2495 5.67721 20.0028 5.78073 19.7755C5.88424 19.5483 6.035 19.3458 6.22296 19.1814L19.2253 6.29618C19.5925 5.95903 20.0611 5.75306 20.5577 5.71048C20.8084 5.71002 21.0563 5.76188 21.2858 5.86273C21.5152 5.96358 21.7211 6.11121 21.8902 6.29618L28.406 12.7388C28.5524 12.7388 28.6988 12.5923 28.8453 12.5923L28.9917 12.4459C29.1381 12.2995 29.431 12.2995 29.5774 12.1531C29.7238 12.0067 29.7238 12.1531 29.8849 12.0067C30.0313 12.0067 30.1777 11.8602 30.3241 11.8602C30.4706 11.8602 30.617 11.7138 30.7634 11.7138C30.9098 11.7138 31.0562 11.5674 31.2027 11.5674C31.3491 11.5674 31.5102 11.421 31.6566 11.421C31.803 11.421 31.803 11.421 31.9494 11.2745C32.0958 11.1281 32.3887 11.1281 32.5351 11.1281H32.6815C32.8426 11.1281 32.989 10.9817 33.1354 10.9817V1.9035C33.1468 1.39969 33.3529 0.919878 33.7106 0.564909C34.0683 0.20994 34.5497 0.00745101 35.0536 0H53.5321C54.0386 0.00367928 54.5236 0.204501 54.8845 0.559865C55.2453 0.915229 55.4535 1.39718 55.4649 1.9035V11.1281C55.6113 11.1281 55.7577 11.2745 55.9042 11.2745H56.0506C56.197 11.2745 56.4899 11.421 56.6509 11.421C56.812 11.421 56.7973 11.421 56.9438 11.5674C57.0902 11.7138 57.2366 11.7138 57.383 11.7138C57.494 11.7293 57.5969 11.7807 57.6759 11.8602C57.8223 11.8602 57.9687 12.0067 58.1298 12.0067C58.2909 12.0067 58.4226 12.1531 58.5691 12.1531C58.7155 12.1531 58.7155 12.2995 58.8619 12.2995C59.0083 12.2995 59.3012 12.4459 59.4476 12.5923L59.6087 12.7388C59.7551 12.7388 59.9015 12.8852 60.0479 12.8852L66.5491 6.4426C66.9031 6.0903 67.3821 5.89253 67.8815 5.89253C68.381 5.89253 68.86 6.0903 69.214 6.4426L82.2895 19.3278C82.6285 19.688 82.835 20.1526 82.8752 20.6456C82.8745 20.8939 82.8221 21.1393 82.7213 21.3662C82.6204 21.5931 82.4734 21.7965 82.2895 21.9634L75.7737 28.406C75.7737 28.5524 75.9201 28.6988 75.9201 28.8453L76.0812 28.9917C76.2276 29.1381 76.2276 29.4309 76.3741 29.5774C76.3847 29.6898 76.4369 29.7942 76.5205 29.8702C76.5205 30.0166 76.6669 30.1631 76.6669 30.3095C76.6669 30.4559 76.8133 30.6023 76.8133 30.7488C76.8133 30.8952 76.9597 31.0416 76.9597 31.188C76.9597 31.3344 77.1062 31.4809 77.1062 31.6273C77.1062 31.7737 77.1062 31.7737 77.2526 31.9201C77.399 32.0666 77.399 32.3594 77.399 32.5058V32.6522C77.399 32.7987 77.5601 32.9451 77.5601 33.0915H86.6822C87.1861 33.099 87.6675 33.3015 88.0252 33.6564C88.3829 34.0114 88.589 34.4912 88.6003 34.995V53.2978C88.589 53.8017 88.3829 54.2815 88.0252 54.6364C87.6675 54.9914 87.1861 55.1939 86.6822 55.2013H77.5015C77.5015 55.3478 77.3404 55.4942 77.3404 55.6406V55.787C77.3404 55.9334 77.194 56.2263 77.194 56.3727C77.194 56.5191 77.194 56.5191 77.0476 56.6656C77.0476 56.812 76.9012 56.9584 76.9012 57.1048C76.8857 57.2158 76.8343 57.3187 76.7548 57.3977C76.7548 57.5441 76.6083 57.6905 76.6083 57.8369C76.6083 57.9834 76.4619 58.1298 76.4619 58.2762C76.4619 58.4226 76.4619 58.4226 76.3155 58.5691C76.1691 58.7155 76.1691 59.0083 76.0226 59.1547L75.8616 59.3012C75.8616 59.4476 75.7152 59.594 75.7152 59.7404L82.2895 66.183C82.4631 66.3558 82.6008 66.5612 82.6947 66.7873C82.7887 67.0135 82.8371 67.2559 82.8371 67.5008C82.8371 67.7457 82.7887 67.9882 82.6947 68.2143C82.6008 68.4405 82.4631 68.6459 82.2895 68.8186L69.2726 81.7038C68.9066 82.0429 68.4373 82.2491 67.9401 82.2895C67.6896 82.2891 67.4419 82.2368 67.2126 82.136C66.9833 82.0352 66.7774 81.8881 66.6077 81.7038L60.1065 75.2612C59.9601 75.2612 59.8137 75.4077 59.6672 75.4077L59.5062 75.5541C59.3597 75.7005 59.0669 75.7005 58.9205 75.8469L58.6276 75.9933C58.4812 75.9933 58.3348 76.1398 58.1884 76.1398C58.0722 76.1521 57.9637 76.2038 57.8809 76.2862C57.7699 76.3017 57.667 76.3531 57.588 76.4326C57.4416 76.4326 57.2952 76.579 57.1488 76.579C57.0023 76.579 57.0023 76.579 56.8559 76.7255C56.7095 76.8719 56.402 76.8719 56.2556 76.8719H56.1092C55.8767 76.9671 55.6282 77.0168 55.377 77.0183V86.0965C55.3701 86.5892 55.1752 87.0606 54.8323 87.4144C54.4894 87.7682 54.0243 87.9777 53.5321 88ZM36.8985 84.3394H51.6872V75.7005C51.6984 75.3074 51.8311 74.9274 52.0671 74.6127C52.3031 74.2981 52.6307 74.0643 53.005 73.9434H53.1514C53.4443 73.9434 53.5907 73.797 53.8982 73.797H54.0446C54.191 73.797 54.4839 73.6506 54.6303 73.6506H54.7767C54.9231 73.6506 55.0696 73.5042 55.2306 73.5042C55.3917 73.5042 55.377 73.5042 55.5235 73.3577C55.6699 73.2113 55.8163 73.2113 55.9627 73.2113C56.1092 73.2113 56.1092 73.0649 56.2556 73.0649C56.402 73.0649 56.402 72.9185 56.5484 72.9185C56.6948 72.9185 56.8559 72.772 57.0023 72.772L57.2952 72.6256C57.4416 72.4792 57.588 72.4792 57.7345 72.3328L57.8809 72.1864C58.0273 72.0399 58.3348 72.0399 58.4812 71.8935H58.6276C58.7741 71.7471 59.0669 71.7471 59.2133 71.6007L59.3597 71.4542C59.7098 71.2465 60.1196 71.1624 60.5232 71.2155C60.9269 71.2686 61.3009 71.4558 61.5854 71.7471L67.7937 77.8968L78.2922 67.5008L72.0399 61.3511C71.7439 61.0758 71.5529 60.7061 71.4994 60.3055C71.446 59.9048 71.5336 59.498 71.7471 59.1547L71.8935 59.0083C72.0399 58.8619 72.0399 58.5691 72.1864 58.4226V58.2762C72.3328 58.1298 72.3328 57.8369 72.4792 57.6905L72.6256 57.5441C72.7721 57.3977 72.7721 57.2513 72.9185 57.1048C72.9184 57.0843 72.9226 57.064 72.9308 57.0452C72.9391 57.0264 72.9512 57.0096 72.9664 56.9958C72.9816 56.9819 72.9995 56.9715 73.019 56.9651C73.0385 56.9586 73.0591 56.9564 73.0795 56.9584C73.0795 56.812 73.226 56.6656 73.226 56.5191C73.226 56.3727 73.3724 56.3727 73.3724 56.2263C73.3724 56.0799 73.5188 56.0799 73.5188 55.9334C73.5188 55.787 73.6652 55.6406 73.6652 55.4942C73.6652 55.4553 73.6807 55.4181 73.7081 55.3906C73.7356 55.3632 73.7728 55.3478 73.8117 55.3478C73.8117 55.2013 73.9581 55.0549 73.9581 54.7621V54.6156C73.9581 54.4692 74.1045 54.1764 74.1045 54.03V53.8835C74.1677 53.6426 74.2165 53.3981 74.2509 53.1514V53.005C74.3772 52.6284 74.6164 52.2999 74.936 52.0641C75.2557 51.8283 75.6402 51.6967 76.0373 51.6872H84.8226V37.0449H76.0373C75.6402 37.0354 75.2557 36.9038 74.936 36.6681C74.6164 36.4323 74.3772 36.1037 74.2509 35.7271V35.5807C74.2509 35.2879 74.1045 35.1414 74.1045 34.8486V34.7022C74.1045 34.5557 73.9581 34.2629 73.9581 34.1165V33.9701C73.9581 33.8236 73.8117 33.6772 73.8117 33.3844C73.8117 33.3455 73.7962 33.3083 73.7688 33.2808C73.7413 33.2534 73.7041 33.2379 73.6652 33.2379C73.6652 33.0915 73.5188 32.9451 73.5188 32.7987C73.5033 32.6877 73.4519 32.5848 73.3724 32.5058C73.3724 32.3594 73.226 32.3594 73.226 32.213C73.226 32.0666 73.0795 31.9201 73.0795 31.7737C73.0795 31.7349 73.0641 31.6976 73.0367 31.6702C73.0092 31.6427 72.972 31.6273 72.9331 31.6273C72.7721 31.4809 72.7721 31.3344 72.6256 31.188V31.0416C72.4792 30.8952 72.4792 30.6023 72.3328 30.4559V30.3095C72.1864 30.1631 72.1864 29.8702 72.0399 29.7238L71.8935 29.5774C71.6854 29.2325 71.601 28.827 71.6542 28.4278C71.7075 28.0285 71.8952 27.6593 72.1864 27.381L78.3947 21.2313L67.8962 10.8353L61.7904 16.985C61.5083 17.2751 61.1368 17.4617 60.7356 17.5149C60.3345 17.568 59.9272 17.4845 59.5794 17.2779L59.4183 17.1314C59.2719 16.985 58.979 16.985 58.8326 16.8386H58.6862C58.5398 16.6922 58.2469 16.6922 58.1005 16.5458L57.9394 16.3993C57.793 16.2529 57.6466 16.2529 57.5002 16.1065C57.3538 15.9601 57.3538 16.1065 57.2073 15.9601C56.9145 15.5208 56.7681 15.5208 56.6216 15.5208C56.5054 15.5085 56.397 15.4568 56.3141 15.3744C56.2031 15.3589 56.1003 15.3075 56.0213 15.228C55.8749 15.228 55.7285 15.0815 55.582 15.0815C55.4356 15.0815 55.4356 15.0815 55.2892 14.9351C55.1428 14.7887 54.9817 14.7887 54.6889 14.7887H54.5424C54.396 14.7887 54.1032 14.6423 53.9567 14.6423H53.8103C53.5644 14.5794 53.3151 14.5305 53.0636 14.4958H53.005C52.628 14.3775 52.2972 14.1448 52.0584 13.8299C51.8197 13.5151 51.6848 13.1337 51.6726 12.7388V3.80699H36.8985V12.4459C36.8802 12.8586 36.727 13.2539 36.4626 13.5713C36.1981 13.8886 35.8369 14.1105 35.4343 14.203H35.2879C34.995 14.203 34.8486 14.3494 34.5557 14.3494H34.4093C34.2629 14.3494 33.9554 14.4958 33.809 14.4958H33.6626C33.5161 14.4958 33.3697 14.6423 33.0769 14.6423C32.784 14.6423 32.9305 14.6423 32.784 14.7887C32.6376 14.9351 32.4765 14.9351 32.3301 14.9351C32.0361 15.0818 32.0361 15.0818 31.7433 15.2282C31.598 15.228 31.4516 15.3744 31.3052 15.3744C31.3052 15.3744 31.1441 15.3744 31.1441 15.5208C31.1441 15.6672 30.8513 15.6672 30.7048 15.8136H30.5584C30.412 15.9601 30.1191 15.9601 29.9727 16.1065H29.8263C29.6652 16.2529 29.3724 16.2529 29.226 16.3993L29.0795 16.5458C28.7317 16.7524 28.3244 16.8359 27.9233 16.7828C27.5222 16.7296 27.1506 16.543 26.8686 16.2529L20.6456 10.1032L10.1471 20.4992L16.3993 26.6489C16.6905 26.9272 16.8782 27.2964 16.9315 27.6957C16.9847 28.0949 16.9003 28.5004 16.6922 28.8453L16.5458 28.9917C16.3993 29.1381 16.3993 29.4309 16.2383 29.5774V29.7238C16.0918 29.8702 16.0919 30.1631 15.9454 30.3095L15.799 30.4559C15.6526 30.6023 15.6526 30.7488 15.5062 30.8952L15.3597 31.188C15.3597 31.3344 15.2133 31.4809 15.2133 31.6273C15.1978 31.7383 15.1464 31.8412 15.0669 31.9201C15.0514 32.0311 15 32.134 14.9205 32.213C14.9205 32.3594 14.7594 32.5058 14.7594 32.6522C14.7594 32.7987 14.7594 32.7987 14.613 32.9451C14.4666 33.0915 14.4666 33.2379 14.4666 33.5308V33.6772C14.4666 33.8236 14.3201 34.1165 14.3201 34.2629V34.4093C14.3201 34.7022 14.1737 34.8486 14.1737 35.1414V35.2879C14.052 35.6644 13.816 35.9937 13.4985 36.2299C13.1809 36.4661 12.7977 36.5974 12.402 36.6057H3.55807V51.2479H12.3434C12.7391 51.2561 13.1224 51.3875 13.4399 51.6237C13.7574 51.8599 13.9935 52.1892 14.1151 52.5657V52.7122C14.1151 53.005 14.2616 53.1514 14.2616 53.4443V53.5907C14.2616 53.7371 14.408 54.03 14.408 54.1764V54.3228C14.408 54.4692 14.5544 54.6156 14.5544 54.9085C14.5544 55.2013 14.5544 55.0549 14.7008 55.2013C14.8473 55.3478 14.8473 55.4942 14.8473 55.6406C14.8656 55.7539 14.9225 55.8573 15.0083 55.9334C15.0238 56.0444 15.0752 56.1473 15.1547 56.2263C15.1547 56.3727 15.3012 56.5191 15.3012 56.6656L15.4476 56.9584C15.594 57.1048 15.594 57.2512 15.7404 57.3977V57.5441C15.8869 57.6905 15.8869 57.9834 16.0333 58.1298V58.2762C16.1797 58.4226 16.1797 58.7155 16.3261 58.8619L16.4872 59.0083C16.6962 59.354 16.7797 59.7611 16.7237 60.1611C16.6677 60.5612 16.4756 60.9297 16.1797 61.2047L9.97138 67.3544L20.4699 77.7504L26.6489 71.6007C26.9334 71.3094 27.3074 71.1222 27.7111 71.0691C28.1147 71.016 28.5245 71.1001 28.8745 71.3078L29.021 71.4542C29.1824 71.6084 29.3865 71.7104 29.6067 71.7471C29.7531 71.8935 30.0606 71.8935 30.207 72.0399L30.3534 72.1864C30.4998 72.3328 30.6463 72.3328 30.7927 72.4792L31.0855 72.6256C31.232 72.6256 31.393 72.772 31.5394 72.772C31.6859 72.772 31.6859 72.9185 31.8323 72.9185C31.9433 72.9339 32.0462 72.9854 32.1251 73.0649C32.2716 73.0649 32.418 73.2113 32.5644 73.2113C32.7108 73.2113 32.7108 73.2113 32.8719 73.3577C33.033 73.5042 33.1647 73.5042 33.4576 73.5042H33.604C33.7504 73.5042 34.0433 73.6506 34.1897 73.6506H34.3508C34.4972 73.6506 34.79 73.797 34.9364 73.797H35.2293C35.6074 73.9134 35.9395 74.1457 36.1785 74.4609C36.4176 74.7762 36.5517 75.1585 36.5617 75.5541V84.3394H36.8985Z" fill="url(#paint1_linear_2565_714)"/>
        <path d="M44.2194 58.7154C43.7155 58.7079 43.2342 58.5054 42.8765 58.1505C42.5188 57.7955 42.3126 57.3157 42.3013 56.8119V42.1696C42.3013 41.6609 42.5034 41.173 42.8631 40.8133C43.2228 40.4536 43.7107 40.2515 44.2194 40.2515C44.7281 40.2515 45.216 40.4536 45.5757 40.8133C45.9355 41.173 46.1375 41.6609 46.1375 42.1696V56.8119C46.1262 57.3157 45.9201 57.7955 45.5624 58.1505C45.2047 58.5054 44.7233 58.7079 44.2194 58.7154Z" fill="url(#paint2_linear_2565_714)"/>
        <path d="M39.9295 47.7341H39.0509C38.0902 47.648 37.1666 47.3211 36.3656 46.7837C35.5646 46.2462 34.9119 45.5156 34.4679 44.6593C33.5775 42.3169 33.0826 39.8428 33.0037 37.3381C32.9891 37.0662 33.0339 36.7943 33.135 36.5414C33.2362 36.2885 33.3912 36.0607 33.5894 35.8739C33.7774 35.6773 34.0054 35.5233 34.258 35.4223C34.5106 35.3212 34.7819 35.2755 35.0536 35.2882C37.5568 35.3798 40.0289 35.8742 42.3747 36.7524C43.2004 37.2266 43.9084 37.8811 44.4459 38.667C44.9833 39.4529 45.3365 40.3501 45.4789 41.2915C45.6367 42.1553 45.5862 43.0443 45.3316 43.8847C45.0769 44.7251 44.6255 45.4926 44.0147 46.1235C42.899 47.1472 41.4436 47.721 39.9295 47.7341ZM36.8985 39.2416C36.9457 40.4469 37.1982 41.6354 37.6453 42.7558C37.8541 43.0847 38.1357 43.3613 38.4682 43.5644C38.8007 43.7675 39.1754 43.8916 39.5634 43.9271C40.1557 44.0082 40.7587 43.906 41.2912 43.6343C41.4752 43.3853 41.5976 43.0963 41.6485 42.7909C41.6994 42.4855 41.6773 42.1724 41.584 41.8772C41.5485 41.4912 41.4243 41.1186 41.2211 40.7884C41.0179 40.4582 40.7413 40.1794 40.4127 39.9737C39.9295 39.8273 38.4506 39.5345 36.8985 39.2416Z" fill="url(#paint3_linear_2565_714)"/>
        <path d="M48.2174 47.734C46.7958 47.745 45.4217 47.2225 44.3665 46.2698C43.7853 45.6196 43.3532 44.8503 43.1003 44.0157C42.8474 43.1811 42.7798 42.3013 42.9022 41.4378C42.9958 40.4811 43.3293 39.5635 43.872 38.77C44.4146 37.9766 45.1488 37.3329 46.0064 36.8987C48.3528 36.0224 50.8246 35.5281 53.3275 35.4345C53.5994 35.4209 53.871 35.4661 54.1237 35.5672C54.3764 35.6683 54.6043 35.8228 54.7918 36.0202C54.9942 36.2044 55.1531 36.4314 55.2569 36.6847C55.3607 36.9379 55.4069 37.2111 55.3921 37.4844C55.306 39.9883 54.8114 42.4612 53.9279 44.8056C53.441 45.6269 52.7769 46.3292 51.984 46.8612C51.1911 47.3932 50.2895 47.7414 49.3448 47.8804C48.9773 47.7815 48.5981 47.7322 48.2174 47.734ZM51.5412 39.2415C50.3274 39.2852 49.1295 39.5327 47.9978 39.9736C47.6657 40.1768 47.3856 40.4547 47.1797 40.7851C46.9738 41.1156 46.8478 41.4895 46.8117 41.8771C46.7245 42.479 46.8269 43.0931 47.1046 43.6342C47.3583 43.8142 47.6497 43.9342 47.9567 43.9849C48.2636 44.0357 48.5781 44.0159 48.8763 43.927C49.2666 43.8925 49.6437 43.769 49.9788 43.5659C50.3139 43.3629 50.5979 43.0857 50.8091 42.7556C50.8823 42.3164 51.1751 40.8521 51.5412 39.2415Z" fill="url(#paint4_linear_2565_714)"/>
        <path d="M35.0536 49.6372H31.3638V53.2978H35.0536V49.6372Z" fill="url(#paint5_linear_2565_714)"/>
        <path d="M57.2211 49.6372H53.5312V53.2978H57.2211V49.6372Z" fill="url(#paint6_linear_2565_714)"/>
        </g>
        <defs>
        <linearGradient id="paint0_linear_2565_714" x1="44.5272" y1="20.3545" x2="24.5001" y2="69.4998" gradientUnits="userSpaceOnUse">
        <stop stop-color="white"/>
        <stop offset="0.0001" stop-color="white" stop-opacity="0.940476"/>
        <stop offset="1" stop-color="white" stop-opacity="0"/>
        </linearGradient>
        <linearGradient id="paint1_linear_2565_714" x1="44.3002" y1="-1.13422e-06" x2="6.5" y2="79.5" gradientUnits="userSpaceOnUse">
        <stop stop-color="white"/>
        <stop offset="1" stop-color="white" stop-opacity="0"/>
        </linearGradient>
        <linearGradient id="paint2_linear_2565_714" x1="44.2194" y1="40.2515" x2="44.2194" y2="58.7154" gradientUnits="userSpaceOnUse">
        <stop stop-color="white"/>
        <stop offset="0.0001" stop-color="white" stop-opacity="0.940476"/>
        <stop offset="1" stop-color="white" stop-opacity="0"/>
        </linearGradient>
        <linearGradient id="paint3_linear_2565_714" x1="39.2849" y1="35.2861" x2="39.2849" y2="47.7341" gradientUnits="userSpaceOnUse">
        <stop stop-color="white"/>
        <stop offset="0.0001" stop-color="white" stop-opacity="0.940476"/>
        <stop offset="1" stop-color="white" stop-opacity="0"/>
        </linearGradient>
        <linearGradient id="paint4_linear_2565_714" x1="49.1189" y1="35.4321" x2="49.1189" y2="47.8804" gradientUnits="userSpaceOnUse">
        <stop stop-color="white"/>
        <stop offset="0.0001" stop-color="white" stop-opacity="0.940476"/>
        <stop offset="1" stop-color="white" stop-opacity="0"/>
        </linearGradient>
        <linearGradient id="paint5_linear_2565_714" x1="33.2087" y1="49.6372" x2="33.2087" y2="53.2978" gradientUnits="userSpaceOnUse">
        <stop stop-color="white"/>
        <stop offset="0.0001" stop-color="white" stop-opacity="0.940476"/>
        <stop offset="1" stop-color="white" stop-opacity="0"/>
        </linearGradient>
        <linearGradient id="paint6_linear_2565_714" x1="55.3762" y1="49.6372" x2="55.3762" y2="53.2978" gradientUnits="userSpaceOnUse">
        <stop stop-color="white"/>
        <stop offset="0.0001" stop-color="white" stop-opacity="0.940476"/>
        <stop offset="1" stop-color="white" stop-opacity="0"/>
        </linearGradient>
        </defs>
    </symbol>
    <symbol id="telegram" viewBox="0 0 24 24" >
        <g clip-path="url(#clip0_3323_2772)">
            <path fill-rule="evenodd" clip-rule="evenodd" d="M24 12C24 18.6274 18.6274 24 12 24C5.37258 24 0 18.6274 0 12C0 5.37258 5.37258 0 12 0C18.6274 0 24 5.37258 24 12ZM12.43 8.85893C11.2628 9.3444 8.93014 10.3492 5.43189 11.8733C4.86383 12.0992 4.56626 12.3202 4.53917 12.5363C4.49339 12.9015 4.95071 13.0453 5.57347 13.2411C5.65818 13.2678 5.74595 13.2954 5.83594 13.3246C6.44864 13.5238 7.27283 13.7568 7.70129 13.766C8.08994 13.7744 8.52373 13.6142 9.00264 13.2853C12.2712 11.079 13.9584 9.96381 14.0643 9.93977C14.139 9.92281 14.2426 9.90148 14.3128 9.96385C14.3829 10.0262 14.376 10.1443 14.3686 10.176C14.3233 10.3691 12.5281 12.0381 11.5991 12.9018C11.3095 13.171 11.1041 13.362 11.0621 13.4056C10.968 13.5033 10.8721 13.5958 10.78 13.6846C10.2108 14.2333 9.78391 14.6448 10.8036 15.3168C11.2936 15.6397 11.6858 15.9067 12.077 16.1731C12.5042 16.4641 12.9303 16.7543 13.4816 17.1157C13.6221 17.2077 13.7562 17.3034 13.8869 17.3965C14.3841 17.751 14.8307 18.0694 15.3826 18.0186C15.7032 17.9891 16.0345 17.6876 16.2027 16.7884C16.6002 14.6631 17.3816 10.0585 17.5622 8.16097C17.578 7.99473 17.5581 7.78197 17.5422 7.68857C17.5262 7.59518 17.4928 7.46211 17.3714 7.3636C17.2276 7.24694 17.0056 7.22234 16.9064 7.22408C16.455 7.23203 15.7626 7.47282 12.43 8.85893Z"/>
        </g>
        <defs>
            <clipPath id="clip0_3323_2772">
                <rect width="24" height="24"/>
            </clipPath>
        </defs>
    </symbol>
    <symbol id="whatsapp" viewBox="0 0 24 24" >
        <path d="M0 24L1.687 17.837C0.646 16.033 0.099 13.988 0.1 11.891C0.103 5.335 5.438 0 11.993 0C15.174 0.001 18.16 1.24 20.406 3.488C22.651 5.736 23.887 8.724 23.886 11.902C23.883 18.459 18.548 23.794 11.993 23.794C10.003 23.793 8.042 23.294 6.305 22.346L0 24ZM6.597 20.193C8.273 21.188 9.873 21.784 11.989 21.785C17.437 21.785 21.875 17.351 21.878 11.9C21.88 6.438 17.463 2.01 11.997 2.008C6.545 2.008 2.11 6.442 2.108 11.892C2.107 14.117 2.759 15.783 3.854 17.526L2.855 21.174L6.597 20.193ZM17.984 14.729C17.91 14.605 17.712 14.531 17.414 14.382C17.117 14.233 15.656 13.514 15.383 13.415C15.111 13.316 14.913 13.266 14.714 13.564C14.516 13.861 13.946 14.531 13.773 14.729C13.6 14.927 13.426 14.952 13.129 14.803C12.832 14.654 11.874 14.341 10.739 13.328C9.856 12.54 9.259 11.567 9.086 11.269C8.913 10.972 9.068 10.811 9.216 10.663C9.35 10.53 9.513 10.316 9.662 10.142C9.813 9.97 9.862 9.846 9.962 9.647C10.061 9.449 10.012 9.275 9.937 9.126C9.862 8.978 9.268 7.515 9.021 6.92C8.779 6.341 8.534 6.419 8.352 6.41L7.782 6.4C7.584 6.4 7.262 6.474 6.99 6.772C6.718 7.07 5.95 7.788 5.95 9.251C5.95 10.714 7.015 12.127 7.163 12.325C7.312 12.523 9.258 15.525 12.239 16.812C12.948 17.118 13.502 17.301 13.933 17.438C14.645 17.664 15.293 17.632 15.805 17.556C16.376 17.471 17.563 16.837 17.811 16.143C18.059 15.448 18.059 14.853 17.984 14.729Z"/>
    </symbol>  
</svg>